HIERARCHY
ROOT Hips
{
    OFFSET 0.000000 0.000000 0.000000
    CHANNELS 6 Xposition Yposition Zposition Zrotation Xrotation Yrotation
    JOINT Spine
    {
        OFFSET -0.000000 14.517291 0.000000
        CHANNELS 3 Zrotation Xrotation Yrotation
        JOINT Spine1
        {
            OFFSET -0.000000 37.558300 0.000000
            CHANNELS 3 Zrotation Xrotation Yrotation
            JOINT Neck
            {
                OFFSET -0.000000 37.404057 3.400369
                CHANNELS 3 Zrotation Xrotation Yrotation
                JOINT Head
                {
                    OFFSET -0.000000 24.785618 -3.540803
                    CHANNELS 3 Zrotation Xrotation Yrotation
                    End Site
                    {
                        OFFSET -0.000000 35.408028 0.000000
                    }
                }
            }
            JOINT LeftShoulder
            {
                OFFSET 6.992933 33.973492 -0.192664
                CHANNELS 3 Zrotation Xrotation Yrotation
                JOINT LeftArm
                {
                    OFFSET 21.527611 0.000000 0.000000
                    CHANNELS 3 Zrotation Xrotation Yrotation
                    JOINT LeftForeArm
                    {
                        OFFSET 56.353916 0.000000 0.000000
                        CHANNELS 3 Zrotation Xrotation Yrotation
                        JOINT LeftHand
                        {
                            OFFSET 47.774071 0.000000 0.000000
                            CHANNELS 3 Zrotation Xrotation Yrotation
                            End Site
                            {
                                OFFSET 26.556021 0.000000 0.000000
                            }
                        }
                    }
                }
            }
            JOINT RightShoulder
            {
                OFFSET -7.065357 33.973492 -0.192664
                CHANNELS 3 Zrotation Xrotation Yrotation
                JOINT RightArm
                {
                    OFFSET -21.527611 0.000000 0.000000
                    CHANNELS 3 Zrotation Xrotation Yrotation
                    JOINT RightForeArm
                    {
                        OFFSET -56.353916 0.000000 0.000000
                        CHANNELS 3 Zrotation Xrotation Yrotation
                        JOINT RightHand
                        {
                            OFFSET -47.774071 0.000000 0.000000
                            CHANNELS 3 Zrotation Xrotation Yrotation
                            End Site
                            {
                                OFFSET -26.556021 0.000000 0.000000
                            }
                        }
                    }
                }
            }
        }
    }
    JOINT LeftUpLeg
    {
        OFFSET 17.704014 0.000000 0.000000
        CHANNELS 3 Zrotation Xrotation Yrotation
        JOINT LeftLeg
        {
            OFFSET -0.000000 -81.181816 0.000000
            CHANNELS 3 Zrotation Xrotation Yrotation
            JOINT LeftFoot
            {
                OFFSET -0.000000 -62.821102 0.000000
                CHANNELS 3 Zrotation Xrotation Yrotation
                JOINT LeftToeBase
                {
                    OFFSET -0.000000 -11.507608 26.556021
                    CHANNELS 3 Zrotation Xrotation Yrotation
                    End Site
                    {
                        OFFSET -0.000000 0.000000 7.081605
                    }
                }
            }
        }
    }
    JOINT RightUpLeg
    {
        OFFSET -17.704014 0.000000 0.000000
        CHANNELS 3 Zrotation Xrotation Yrotation
        JOINT RightLeg
        {
            OFFSET -0.000000 -81.181816 0.000000
            CHANNELS 3 Zrotation Xrotation Yrotation
            JOINT RightFoot
            {
                OFFSET -0.000000 -62.821102 0.000000
                CHANNELS 3 Zrotation Xrotation Yrotation
                JOINT RightToeBase
                {
                    OFFSET -0.000000 -11.507608 26.556021
                    CHANNELS 3 Zrotation Xrotation Yrotation
                    End Site
                    {
                        OFFSET -0.000000 0.000000 7.081605
                    }
                }
            }
        }
    }
}
MOTION
Frames:    5
Frame Time:    0.008333
-4.573731    157.171722    -95.965309    -1.984557    0.688536    34.239204    1.127618    -1.830862    0.271547    -7.162642    0.171316    0.095147    12.690857    -6.107398    -1.670995    3.401927    7.262527    -4.051476    7.422252    4.345423    -17.491085    -28.855391    20.976379    -55.139652    -16.395733    4.164145    -94.431549    14.048014    -14.329760    -5.396247    -14.243795    -4.076390    -1.479168    26.027760    -20.829550    64.278503    -9.239099    -10.045347    53.978394    -9.747313    -7.796692    28.060501    15.674410    -6.414937    -19.439764    -5.606763    25.746387    -33.435886    7.052592    -24.081469    38.621166    0.000000    0.000000    0.000000    -15.474444    -24.494595    -9.386497    9.019944    20.018639    -12.671066    2.201932    9.382224    -20.865555    0.000000    0.000000    0.000000    
-4.725833    157.190399    -95.961273    -1.974726    0.673205    34.743549    1.064812    -1.769355    0.185170    -7.107452    0.150516    0.066425    12.506908    -6.040889    -1.810561    3.533078    7.166388    -4.138326    7.381327    4.350550    -17.506834    -28.856853    20.887657    -55.116432    -16.700640    4.347031    -94.515190    14.938103    -14.533225    -5.232247    -14.281445    -4.070697    -1.535754    25.983418    -20.844025    64.132057    -9.258683    -10.050378    53.929813    -9.730129    -7.791508    28.050341    15.821319    -6.512273    -19.684418    -5.835802    25.498707    -32.887840    6.994694    -23.970169    38.746788    0.000000    0.000000    0.000000    -15.619585    -24.373907    -9.647635    9.037421    20.105837    -12.705688    2.316360    9.235585    -21.097010    0.000000    0.000000    0.000000    
-4.856989    157.217056    -95.950714    -1.940373    0.643735    35.221920    1.029306    -1.698375    0.138199    -7.136495    0.152754    0.051578    12.428126    -6.013301    -1.940389    3.594159    7.103086    -4.247470    7.395651    4.318628    -17.546448    -28.806517    20.933199    -55.121761    -16.794456    4.272662    -94.554855    15.341624    -14.733517    -5.188909    -14.247953    -4.084254    -1.625229    25.878641    -20.828287    63.945381    -9.290468    -10.083954    53.908607    -9.740171    -7.811494    28.024355    15.928761    -6.616058    -19.351109    -5.821626    25.418688    -32.809692    6.999904    -23.827299    38.840305    0.000000    0.000000    0.000000    -15.782405    -24.225122    -9.832593    9.102553    20.185532    -12.739855    2.497689    9.057537    -21.406866    0.000000    0.000000    0.000000    
-4.984394    157.228714    -95.938553    -1.912748    0.609490    35.703835    0.990267    -1.625941    0.072140    -7.133870    0.124936    0.028077    12.334889    -5.942052    -2.072907    3.649846    7.041971    -4.352255    7.410399    4.341627    -17.563522    -28.771214    20.938438    -55.135887    -16.939573    4.252203    -94.584160    15.935695    -14.933990    -5.080059    -14.232838    -4.092257    -1.689878    25.817165    -20.800581    63.779732    -9.284667    -10.128116    53.887646    -9.689249    -7.854008    28.086599    16.054790    -6.699496    -19.188845    -5.888839    25.282394    -32.515396    7.046320    -23.701082    38.904217    0.000000    0.000000    0.000000    -15.941274    -24.077662    -10.055009    9.148281    20.291956    -12.781135    2.696751    8.845668    -21.633978    0.000000    0.000000    0.000000    
-5.077133    157.249420    -95.944145    -1.882179    0.583910    36.199406    0.992638    -1.578324    0.013669    -7.197743    0.117645    -0.003885    12.293436    -5.859371    -2.197118    3.680867    6.965883    -4.459256    7.445808    4.327982    -17.599977    -28.792023    20.902300    -55.120861    -17.084507    4.301943    -94.555969    16.310305    -15.044647    -5.025849    -14.185944    -4.074466    -1.746316    25.738134    -20.809576    63.609138    -9.269591    -10.170824    53.874084    -9.673868    -7.898166    28.042280    16.147087    -6.797600    -18.945509    -5.920924    25.185589    -32.364933    7.171431    -23.535370    39.140739    0.000000    0.000000    0.000000    -16.139206    -23.906704    -10.315691    9.214788    20.367937    -12.871016    2.940890    8.629604    -21.836414    0.000000    0.000000    0.000000    
